# xmcd
#
# Track frame offsets:
#	182
#	16145
#	35195
#	52997
#	67192
#	84592
#	99525
#	115960
#	132170
#	148295
#	166075
#
# Disc length: 2493 seconds
#
# Revision: 4
# Processed by: cddbd v1.5.2PL0 Copyright (c) Steve Scherf et al.
# Submitted via: EasyCDDAExtractor 15.3.0.1
#
DISCID=9909bb0b
DTITLE=Maria Conchita Alonso - De Coleccion
DYEAR=1994
DGENRE=Latin
TTITLE0=Noche De Copas
TTITLE1=Acariciame
TTITLE2=La Loca
TTITLE3=Sueltame
TTITLE4=O Ella O Yo
TTITLE5=Tu Eres El Hombre
TTITLE6=Y Es Que Llegaste Tu
TTITLE7=Lluvia De Amor
TTITLE8=Eres Tan Real
TTITLE9=Entre La Espada Y La Pared
TTITLE10=Dueño De Mi Cuerpo
EXTD=
EXTT0=
EXTT1=
EXTT2=
EXTT3=
EXTT4=
EXTT5=
EXTT6=
EXTT7=
EXTT8=
EXTT9=
EXTT10=
PLAYORDER=
